PathFileType	4	(X/Y/Z)	C:/Users/beibeiliu/ov580/test_trc/User3\sequence.30_training_dense_left.trc
DataRate	CameraRate	NumFrames	NumMarkers	Units	OrigDataRate	OrigDataStartFrame	OrigNumFrames
120	120	9	19	mm	120	1	239
Frame#	Time	ThumbCMC			ThumbMCP			ThumbIP			ThumbTip			IndexMCP			IndexPIP			IndexTip			MiddleMCP			MiddlePIP			MiddleTip			RingMCP			RingPIP			RingTip			PinkyMCP			PinkyPIP			PinkyTip			BackHand1			BackHand2			BackHand3	
		X0	Y0	Z0	X1	Y1	Z1	X2	Y2	Z2	X3	Y3	Z3	X4	Y4	Z4	X5	Y5	Z5	X6	Y6	Z6	X7	Y7	Z7	X8	Y8	Z8	X9	Y9	Z9	X10	Y10	Z10	X11	Y11	Z11	X12	Y12	Z12	X13	Y13	Z13	X14	Y14	Z14	X15	Y15	Z15	X16	Y16	Z16	X17	Y17	Z17	X18	Y18	Z18	
0	0	-128.894	-40.2512	22.206	-110.909	-49.6986	1.32874	-91.7972	-57.3357	-21.752	-81.4976	-66.051	-43.6333	-141.317	-26.3988	-56.1051	-131.947	-30.8748	-81.3134	-125.995	-39.1663	-111.023	-163.381	-21.7125	-63.9745	-161.726	-25.017	-92.4205	-161.116	-34.8636	-123.216	-184.097	-24.5483	-58.6807	-186.829	-25.6217	-80.4128	-191.056	-32.7703	-107.011	-208.172	-29.9384	-42.6723	-212.27	-31.9467	-61.2015	-213.825	-35.2849	-86.1921	-185.233	-12.7514	-7.92671	-187.819	-11.4305	26.8037	-154.297	-14.4097	8.33049	
1	0.00833333	-131.346	-40.2565	19.8032	-110.84	-48.1943	0.141637	-97.828	-56.3291	-22.9803	-83.5894	-65.6363	-43.6907	-142.389	-25.6008	-57.7209	-133.742	-29.9497	-85.775	-128.698	-39.0537	-111.995	-163.443	-21.2835	-66.5516	-161.741	-24.2325	-89.9163	-162.09	-33.9375	-123.301	-189.434	-23.2022	-56.8564	-186.802	-25.8716	-80.8845	-191.38	-33.1631	-112.146	-206.711	-30.8904	-39.0536	-213.726	-32.0121	-66.4823	-217.646	-33.6223	-85.2338	-188.674	-13.4658	-4.26928	-187.708	-10.1955	24.0514	-154.529	-15.0156	6.58829	
2	0.0166667	-132.108	-40.62	21.4593	-113.398	-48.2645	2.28926	-94.349	-56.6189	-25.7157	-86.5254	-64.8979	-40.1948	-137.095	-26.265	-60.5643	-134.153	-29.592	-83.7073	-124.954	-38.0939	-107.722	-166.213	-20.1776	-63.6084	-162.281	-24.3492	-91.2797	-159.172	-33.305	-121.719	-184.628	-23.7737	-55.07	-187.49	-26.8213	-85.414	-192.398	-33.0156	-111.129	-208.207	-29.2056	-40.7396	-214.047	-31.9939	-64.4755	-216.23	-35.5965	-85.4871	-189.521	-12.3275	-5.07017	-187.588	-11.5983	23.5394	-156.497	-14.8674	9.20752	
3	0.025	-128.114	-39.9136	16.6135	-113.349	-48.337	-1.38622	-95.9827	-56.7683	-24.4384	-85.3453	-65.574	-39.1215	-139.746	-25.8677	-60.8084	-129.444	-30.1708	-86.9468	-130.435	-37.1462	-107.988	-163.721	-20.3794	-62.4931	-162.33	-24.2842	-93.8634	-161.901	-33.3527	-122.975	-183.845	-23.1254	-58.0719	-187.943	-25.8766	-84.4465	-189.58	-31.2534	-106.729	-203.652	-30.078	-39.5642	-209.395	-30.178	-64.371	-216.413	-32.5664	-85.9144	-187.305	-13.0462	-8.344	-190.703	-10.3311	22.0575	-154.369	-14.2822	5.76533	
4	0.0333333	-132.204	-40.934	19.3281	-111.137	-48.8734	-3.48377	-92.894	-57.7794	-23.28	-82.0151	-66.5982	-41.1185	-136.992	-26.1362	-57.6526	-131.151	-29.1739	-82.7903	-125.273	-36.9558	-107.784	-160.647	-19.8484	-68.4227	-159.366	-25.8425	-96.2782	-159.144	-32.951	-121.95	-188.306	-23.6717	-57.6732	-186.357	-25.6831	-86.2265	-191.578	-32.7134	-111.393	-208.724	-29.3233	-42.4607	-208.207	-30.885	-63.2305	-216.574	-32.7603	-86.4763	-187.282	-11.5245	-7.9926	-184.193	-10.4155	20.3296	-154.583	-15.568	5.20221	
5	0.0416667	-131.063	-40.4441	14.912	-111.976	-48.2198	-3.11078	-94.7476	-56.6546	-27.6868	-81.4484	-66.2602	-42.7897	-136.507	-26.4085	-56.7288	-133.607	-29.7586	-87.3984	-126.01	-36.8899	-108.077	-165.065	-20.0967	-67.8073	-160.29	-24.1479	-93.8796	-162.552	-32.8773	-123.346	-189.009	-23.261	-57.8746	-189.824	-25.5384	-85.9908	-193.389	-31.5477	-108.533	-206.486	-28.397	-41.9364	-208.944	-30.4054	-61.399	-217.455	-34.5797	-85.4605	-183.959	-12.2317	-4.62143	-186.496	-11.0625	22.2998	-151.229	-15.9176	6.28921	
6	0.05	-128.706	-39.4539	15.6825	-109.373	-47.5145	-3.40852	-96.4408	-57.0744	-23.3921	-84.2977	-64.5341	-42.1168	-140.066	-25.0455	-62.1876	-130.896	-29.3956	-82.7189	-128.415	-35.8507	-108.494	-166.253	-19.3745	-68.1852	-160.482	-23.2482	-91.3613	-160.514	-31.5341	-125.147	-184.679	-23.4916	-55.5019	-188.857	-25.2782	-82.8262	-189.998	-31.0362	-112.27	-209.162	-28.3824	-41.9849	-212.112	-30.4877	-66.6829	-217.554	-33.6885	-87.0113	-183.532	-14.187	-4.14445	-188.281	-10.6975	24.25	-154.637	-13.4879	7.85196	
7	0.0583333	-129.217	-38.5221	20.5155	-110.417	-46.8241	-0.457221	-91.9313	-53.9745	-26.616	-80.7439	-62.6973	-41.8024	-139.208	-23.1613	-60.5261	-130.096	-28.7013	-87.2779	-129.545	-33.8292	-108.904	-164.693	-18.2863	-67.4078	-161.887	-21.8444	-92.0151	-157.668	-31.5278	-127.195	-184.54	-21.9793	-56.4571	-191.393	-24.1541	-83.046	-192.704	-30.1399	-108.299	-208.694	-26.4347	-43.9377	-210.96	-29.2742	-62.7719	-216.921	-33.6623	-89.4296	-189.023	-12.577	-3.66342	-188.305	-10.4323	22.7615	-151.742	-12.1747	7.2371	
8	0.0666667	-129.416	-38.3718	17.5913	-111.325	-45.5732	-3.72373	-96.6378	-52.4962	-25.9879	-83.1888	-60.0072	-46.8851	-139.544	-21.0111	-57.726	-131.481	-25.2941	-87.9574	-124.68	-34.1796	-112.264	-164.54	-15.3957	-63.1816	-164.929	-18.6565	-95.2326	-161.169	-28.0119	-124.395	-186.815	-19.5234	-57.4841	-191.179	-21.5301	-82.1764	-190.158	-28.886	-110.585	-209.018	-26.498	-39.0553	-210.941	-27.8279	-61.2581	-217.843	-31.1673	-86.8431	-186.529	-12.4205	-4.7582	-189.103	-11.0118	26.453	-153.993	-13.445	8.84096	
